<svg id="svg2985" xmlns="http://www.w3.org/2000/svg" xmlns:xlink="http://www.w3.org/1999/xlink" viewBox="0 0 491.8 125"><defs><style>.cls-1{fill:none;}.cls-2{clip-path:url(#clip-path);}.cls-3{fill:#fff;}</style><clipPath id="clip-path" transform="translate(0 0)"><rect class="cls-1" width="491.8" height="125"/></clipPath></defs><title>2015-transloadit-logotext-white-light-1639x417</title><g id="g2993"><g id="g2995"><g class="cls-2"><g id="g2997"><g id="g3003"><path id="path3005" class="cls-3" d="M46,86.9a4,4,0,1,1-4-4,4,4,0,0,1,4,4" transform="translate(0 0)"/></g><g id="g3007"><path id="path3009" class="cls-3" d="M38,95a12.1,12.1,0,1,1,12.1-12.1A12.1,12.1,0,0,1,38,95m0-30.25A18.15,18.15,0,1,0,56.11,82.86,18.14,18.14,0,0,0,38,64.71" transform="translate(0 0)"/></g><g id="g3011"><path id="path3013" class="cls-3" d="M77.74,105.09a3.25,3.25,0,0,1-1.3,4.37,31.87,31.87,0,0,1-14,3,31,31,0,0,1-13.91-3,3.22,3.22,0,1,1,3.09-5.66A25.26,25.26,0,0,0,62.46,106a25.87,25.87,0,0,0,10.9-2.22,3.22,3.22,0,0,1,4.38,1.3" transform="translate(0 0)"/></g><g id="g3015"><path id="path3017" class="cls-3" d="M95.09,86.9a4,4,0,1,1-4-4,4,4,0,0,1,4,4" transform="translate(0 0)"/></g><g id="g3019"><path id="path3021" class="cls-3" d="M87,95a12.1,12.1,0,1,1,12.1-12.1A12.11,12.11,0,0,1,87,95m0-30.25a18.15,18.15,0,1,0,18.15,18.15A18.15,18.15,0,0,0,87,64.71" transform="translate(0 0)"/></g><g id="g3023"><path id="path3025" class="cls-3" d="M62.5,116.94c-27.1,0-54.44-10-54.44-25.38,0-17.7.5-35.73,1.85-42.91C11.16,42,39.83,37,58.59,36.36V23.51a8.08,8.08,0,1,1,6.45,0V36.32c18.7.44,48.76,5.47,50.05,12.33,1.33,7.18,1.85,25.21,1.85,42.91,0,15.35-27.35,25.38-54.44,25.38M123,47.16c-1.35-7.22-9.18-11.8-26.21-15.29a197.68,197.68,0,0,0-23.69-3.22v-1a16.13,16.13,0,1,0-22.58,0v1.11A194,194,0,0,0,28.2,31.87C11.17,35.36,3.32,39.94,2,47.16.25,56.39,0,78.94,0,91.56,0,113.28,32.2,125,62.5,125S125,113.27,125,91.56c0-12.62-.26-35.17-2-44.4" transform="translate(0 0)"/></g><g id="g3027"><path id="path3029" class="cls-3" d="M46,86.9a4,4,0,1,1-4-4,4,4,0,0,1,4,4" transform="translate(0 0)"/></g><g id="g3031"><path id="path3033" class="cls-3" d="M38,95a12.1,12.1,0,1,1,12.1-12.1A12.1,12.1,0,0,1,38,95m0-30.25A18.15,18.15,0,1,0,56.11,82.86,18.14,18.14,0,0,0,38,64.71" transform="translate(0 0)"/></g><g id="g3035"><path id="path3037" class="cls-3" d="M77.74,105.09a3.25,3.25,0,0,1-1.3,4.37,31.87,31.87,0,0,1-14,3,31,31,0,0,1-13.91-3,3.22,3.22,0,1,1,3.09-5.66A25.26,25.26,0,0,0,62.46,106a25.87,25.87,0,0,0,10.9-2.22,3.22,3.22,0,0,1,4.38,1.3" transform="translate(0 0)"/></g><g id="g3039"><path id="path3041" class="cls-3" d="M95.09,86.9a4,4,0,1,1-4-4,4,4,0,0,1,4,4" transform="translate(0 0)"/></g><g id="g3043"><path id="path3045" class="cls-3" d="M87,95a12.1,12.1,0,1,1,12.1-12.1A12.11,12.11,0,0,1,87,95m0-30.25a18.15,18.15,0,1,0,18.15,18.15A18.15,18.15,0,0,0,87,64.71" transform="translate(0 0)"/></g><g id="g3047"><path id="path3049" class="cls-3" d="M38,95a12.1,12.1,0,1,1,12.1-12.1A12.1,12.1,0,0,1,38,95m0-30.25A18.15,18.15,0,1,0,56.11,82.86,18.14,18.14,0,0,0,38,64.71" transform="translate(0 0)"/></g><g id="g3051"><path id="path3053" class="cls-3" d="M46,86.9a4,4,0,1,1-4-4,4,4,0,0,1,4,4" transform="translate(0 0)"/></g><g id="g3055"><path id="path3057" class="cls-3" d="M87,95a12.1,12.1,0,1,1,12.1-12.1A12.11,12.11,0,0,1,87,95m0-30.25a18.15,18.15,0,1,0,18.15,18.15A18.15,18.15,0,0,0,87,64.71" transform="translate(0 0)"/></g><g id="g3059"><path id="path3061" class="cls-3" d="M95.09,86.9a4,4,0,1,1-4-4,4,4,0,0,1,4,4" transform="translate(0 0)"/></g><g id="g3063"><path id="path3065" class="cls-3" d="M76.44,109.46a31.82,31.82,0,0,1-14,3,31,31,0,0,1-13.91-3,3.22,3.22,0,1,1,3.09-5.66A25.26,25.26,0,0,0,62.46,106a25.87,25.87,0,0,0,10.9-2.22,3.23,3.23,0,1,1,3.08,5.67" transform="translate(0 0)"/></g><g id="g3067"><path id="path3069" class="cls-3" d="M180.15,53.47H165.43V90.74h-7.35V53.47H143.37V46.61h36.78Z" transform="translate(0 0)"/></g><g id="g3071"><path id="path3073" class="cls-3" d="M201.6,63.28h-9.81c-1.66,0-2.45,1-2.45,2.94V90.74H182V66.22c0-6.68,3.13-9.81,9.81-9.81h9.81Z" transform="translate(0 0)"/></g><g id="g3075"><path id="path3077" class="cls-3" d="M230.4,74.31,215.69,78c-2.2.55-2.45,1.29-2.45,2.94,0,2,.8,2.94,2.45,2.94H228c1.66,0,2.45-1,2.45-2.94Zm7.36-8.09V80.93c0,6.68-3.13,9.81-9.81,9.81H215.69c-6.68,0-9.8-3.13-9.8-9.81,0-2.94,1-5,3.12-6.19a21.25,21.25,0,0,1,6.68-2.51l14.71-3.68V66.22c0-2-.79-2.94-2.45-2.94H215.69c-1.65,0-2.45,1-2.45,2.94v2.45h-7.35V66.22c0-6.68,3.12-9.81,9.8-9.81H228c6.68,0,9.81,3.13,9.81,9.81" transform="translate(0 0)"/></g><g id="g3079"><path id="path3081" class="cls-3" d="M269.32,66.22c0-2-.8-2.94-2.45-2.94H254.61c-1.65,0-2.45,1-2.45,2.94V90.74H244.8V66.22c0-6.68,3.13-9.81,9.81-9.81h12.26c6.68,0,9.81,3.13,9.81,9.81V90.74h-7.36Z" transform="translate(0 0)"/></g><g id="g3083"><path id="path3085" class="cls-3" d="M305.48,90.74H293.22c-6.68,0-9.8-3.13-9.8-9.81V78.48h7.35v2.45c0,2,.8,2.94,2.45,2.94h12.26c1.66,0,2.45-1,2.45-2.94,0-1.41,0-2.08-2.45-2.94l-12.26-3.07a22.58,22.58,0,0,1-6.68-2.45c-2.14-1.28-3.12-3.31-3.12-6.25,0-6.68,3.12-9.81,9.8-9.81h12.26c6.68,0,9.81,3.13,9.81,9.81v2.45h-7.36V66.22c0-2-.79-2.94-2.45-2.94H293.22c-1.65,0-2.45,1-2.45,2.94,0,1.41,0,2.08,2.45,2.94l12.26,3.07a19.91,19.91,0,0,1,6.62,2.51c2.21,1.23,3.19,3.25,3.19,6.19,0,6.68-3.13,9.81-9.81,9.81" transform="translate(0 0)"/></g><g id="g3087"><path id="path3089" class="cls-3" d="M330.61,83.87h6.13v6.87h-6.13c-6.13,0-8.58-2.45-8.58-8.58V46.61h7.36V82.16c0,1.22.18,1.71,1.22,1.71" transform="translate(0 0)"/></g><g id="g3091"><path id="path3093" class="cls-3" d="M365.85,66.22c0-2-.79-2.94-2.45-2.94H351.14c-1.65,0-2.45,1-2.45,2.94V80.93c0,2,.8,2.94,2.45,2.94H363.4c1.66,0,2.45-1,2.45-2.94Zm7.36,0V80.93c0,6.68-3,9.81-9.81,9.81H351.14c-6.8,0-9.8-3.13-9.8-9.81V66.22c0-6.68,3-9.81,9.8-9.81H363.4c6.81,0,9.81,3.13,9.81,9.81" transform="translate(0 0)"/></g><g id="g3095"><path id="path3097" class="cls-3" d="M404.16,74.31,389.45,78c-2.21.55-2.45,1.29-2.45,2.94,0,2,.79,2.94,2.45,2.94h12.26c1.65,0,2.45-1,2.45-2.94Zm7.35-8.09V80.93c0,6.68-3.12,9.81-9.8,9.81H389.45c-6.68,0-9.81-3.13-9.81-9.81,0-2.94,1-5,3.13-6.19a21.06,21.06,0,0,1,6.68-2.51l14.71-3.68V66.22c0-2-.8-2.94-2.45-2.94H389.45c-1.66,0-2.45,1-2.45,2.94v2.45h-7.36V66.22c0-6.68,3.13-9.81,9.81-9.81h12.26c6.68,0,9.8,3.13,9.8,9.81" transform="translate(0 0)"/></g><g id="g3099"><path id="path3101" class="cls-3" d="M442.77,80.93V63.28H428.06c-1.65,0-2.45,1-2.45,2.94V80.93c0,2,.8,2.94,2.45,2.94h12.26c1.65,0,2.45-1,2.45-2.94m7.36-34.32V80.93c0,6.68-3,9.81-9.81,9.81H428.06c-6.8,0-9.81-3.13-9.81-9.81V66.22c0-6.68,3-9.81,9.81-9.81h14.71v-9.8Z" transform="translate(0 0)"/></g><g id="g3103"><path id="path3105" class="cls-3" d="M466.23,36.44a7.1,7.1,0,0,0-10.23,0,7.09,7.09,0,0,0,1.48,11.32v43h7.36v-43a7.18,7.18,0,0,0,1.39-11.3" transform="translate(0 0)"/></g><g id="g3107"><path id="path3109" class="cls-3" d="M491.8,83.87v6.87h-11c-6.13,0-8.58-2.45-8.58-8.58V46.61h7.35v9.8h11v6.87h-11V82.16c0,1.22.19,1.71,1.23,1.71Z" transform="translate(0 0)"/></g></g></g></g></g></svg>