<svg id="text" xmlns="http://www.w3.org/2000/svg" viewBox="0 0 383 233"><title>title</title><path d="M36.54,108.89V63.82H20.7v45.07H6.88V5.5H20.7V52.3H36.54V5.5H50.37V108.89Z" style="fill:#fff"/><path d="M76.43,108.89H62.61V23.21q0-17.7,16.56-17.71H89.53q16.56,0,16.56,17.71v85.68H92.27V71H76.43Zm15.84-50.4V24.08q0-6-6-6H82.48q-6,0-6,6V58.49Z" style="fill:#fff"/><path d="M160.38,81.82v9.51q0,17.57-16.56,17.56h-8.93q-16.56,0-16.56-17.56V23.07q0-17.57,16.56-17.57h8.93q16.56,0,16.56,17.57V37.61H146.56V23.07q0-6-6.2-6.05h-2.73q-5.48,0-5.47,6.05V91.33q0,6,5.47,6h3.45q5.47,0,5.48-6V81.82Z" style="fill:#fff"/><path d="M185,57.63,199.83,5.5h12.68l-15,51.55,18.14,51.84H201.85L185,58.49v50.4H171.18V5.5H185Z" style="fill:#fff"/><path d="M267.22,17v91.87H253.4V17H240.15V5.5h40.32V17Z" style="fill:#fff"/><path d="M318.05,108.89V63.82H302.21v45.07H288.39V5.5h13.82V52.3h15.84V5.5h13.83V108.89Z" style="fill:#fff"/><path d="M344.84,108.89V5.5h30.53V17H358.66V52.3h16.71V63.82H358.66V97.38h16.71v11.51Z" style="fill:#fff"/><path d="M39,175.77q11.37,0,11.38,11.09v24.63q0,15.4-15.7,15.4H6.88V123.5H29.05q18.43,0,18.44,18.72v21.89Q47.19,173.47,39,175.77ZM20.7,170.3h6.19q4,0,5.4-1.51c.92-1,1.37-2.76,1.37-5.26v-21q0-7.48-6.19-7.49H20.7Zm0,45.08H32.22q4.32,0,4.32-4.47V189.17q0-7.35-8.21-7.35H20.7Z" style="fill:#fff"/><path d="M105.37,123.5v83.81q0,19.59-19.73,19.58H81.47q-19.59,0-19.59-19.72V123.5H75.71v84.1a7.93,7.93,0,0,0,1.37,5q1.36,1.73,4.68,1.73h3.45q6.35,0,6.34-6.77V123.5Z" style="fill:#fff"/><path d="M149.58,226.89l-9.07-41.76h-8.35v41.76H118.33V123.5H145.4q15.84,0,15.84,17.71V166.7q0,13.55-8.2,17.14l9.64,43Zm-17.42-53.56h9.07q6.18,0,6.19-7.49V143.52q0-7.49-6.19-7.49h-9.07Z" style="fill:#fff"/><path d="M216.54,176.06l.14,50.83H190q-16.56,0-16.56-17.56V141.07q0-17.56,16.56-17.57H199q16.56,0,16.56,17.57v14.54H201.71V142.08q0-6-6.2-6.05h-2.73q-5.47,0-5.47,6.05v66.24q0,6,6.19,6.05h9.21V187.58h-8.35V176.06Z" style="fill:#fff"/><path d="M259.31,226.89V181.82H243.47v45.07H229.64V123.5h13.83v46.8h15.84V123.5h13.82V226.89Z" style="fill:#fff"/><path d="M353.91,123.5l-16.7,103.39H320.79L304.09,123.5h13.68L329,202.41l11.23-78.91Z" style="fill:#5dc6cd"/><path d="M361.83,226.89V123.5h13.83V226.89Z" style="fill:#5dc6cd"/></svg>